<svg xmlns="http://www.w3.org/2000/svg" xmlns:xlink="http://www.w3.org/1999/xlink" version="1.1" data-diagram-type="DESCRIPTION" style="width:671px;height:402px;background:#FFFFFF;" width="671px" height="402px" viewBox="0 0 671 402" zoomAndPan="magnify" preserveAspectRatio="none" contentStyleType="text/css"><?plantuml 1.2026.7beta8?><defs/><g font-family="sans-serif" lengthAdjust="spacing"><!--cluster Vehicle Configurator--><g class="cluster" data-qualified-name="Vehicle Configurator" id="ent0002" data-source-line="10"><rect x="7" y="144.8" width="650" height="243.59" fill="#DDF3FE" style="stroke:#0049B0;stroke-width:1;" rx="6" ry="6"/><text x="250.567" y="159.795" fill="#000" font-size="14" textLength="162.866" font-weight="700" font-family="Helvetica">Vehicle Configurator</text></g><!--cluster be--><g class="cluster" data-qualified-name="Vehicle Configurator.be" id="ent0004" data-source-line="12"><rect x="39" y="195.8" width="311" height="160.59" fill="#FFF" style="stroke:#181818;stroke-width:1;" rx="6" ry="6"/><path d="M229.537,195.8 L229.537,237.691 L219.537,247.691 L39,247.691" style="stroke:#181818;stroke-width:1;" fill="none"/><text x="98.663" y="209.795" fill="#000" font-size="14" textLength="67.211" font-weight="700" font-family="Helvetica">Backend</text><text x="42" y="226.092" fill="#000" font-size="14" textLength="180.537" font-weight="700" font-family="Helvetica">Java 25 · Spring Boot 4</text><text x="73.346" y="242.389" fill="#000" font-size="14" textLength="117.845" font-weight="700" font-family="Helvetica">REST API /api/*</text></g><!--entity fe--><g class="entity" data-qualified-name="Vehicle Configurator.fe" id="ent0003" data-source-line="11"><rect x="450.63" y="262.15" width="190.732" height="78.891" fill="#FFF" style="stroke:#181818;stroke-width:0.5;" rx="6" ry="6"/><rect x="621.362" y="267.15" width="15" height="10" fill="#FFF" style="stroke:#181818;stroke-width:0.5;"/><rect x="619.362" y="269.15" width="4" height="2" fill="#FFF" style="stroke:#181818;stroke-width:0.5;"/><rect x="619.362" y="273.15" width="4" height="2" fill="#FFF" style="stroke:#181818;stroke-width:0.5;"/><text x="465.63" y="295.145" fill="#000" font-size="14" textLength="63.109" font-family="Helvetica">Frontend</text><text x="465.63" y="311.442" fill="#000" font-size="14" textLength="150.732" font-family="Helvetica">Vue 3 · Vite · Three.js</text><text x="465.63" y="327.739" fill="#000" font-size="14" textLength="86.345" font-family="Helvetica">nginx + SPA</text></g><!--entity db--><g class="entity" data-qualified-name="Vehicle Configurator.be.db" id="ent0005" data-source-line="13"><path d="M63.29,280.8 C63.29,270.8 184.999,270.8 184.999,270.8 C184.999,270.8 306.709,270.8 306.709,280.8 L306.709,322.394 C306.709,332.394 184.999,332.394 184.999,332.394 C184.999,332.394 63.29,332.394 63.29,322.394 L63.29,280.8" style="stroke:#0049B0;stroke-width:0.5;" fill="#FFF"/><path d="M63.29,280.8 C63.29,290.8 184.999,290.8 184.999,290.8 C184.999,290.8 306.709,290.8 306.709,280.8" style="stroke:#0049B0;stroke-width:0.5;" fill="none"/><text x="73.29" y="307.795" fill="#000" font-size="14" textLength="45.698" font-family="Helvetica">SQLite</text><text x="73.29" y="324.092" fill="#000" font-size="14" textLength="223.419" font-family="Helvetica">catalog · configurations · orders</text></g><!--entity user--><g class="entity" data-qualified-name="user" id="ent0001" data-source-line="8"><ellipse cx="546" cy="14" rx="8" ry="8" fill="#FFF" style="stroke:#181818;stroke-width:0.5;"/><path d="M546,22 L546,49 M533,30 L559,30 M546,49 L533,64 M546,49 L559,64" style="stroke:#181818;stroke-width:0.5;" fill="none"/><text x="517.48" y="78.495" fill="#000" font-size="14" textLength="57.039" font-family="Helvetica">Browser</text></g><!--link user to fe--><g class="link" data-entity-1="ent0001" data-entity-2="ent0003" id="lnk6" data-source-line="17" data-link-type="dependency"><path d="M546,82.14 C546,130.18 546,208.05 546,256.74" style="stroke:#0049B0;stroke-width:1;" fill="none" id="user-to-fe"/><polygon points="546,261.74,550,252.74,546,256.74,542,252.74,546,261.74" fill="#0049B0" style="stroke:#0049B0;stroke-width:1;stroke-linejoin:miter;stroke-miterlimit:10;"/><text x="547" y="124.867" fill="#000" font-size="13" textLength="41.749" font-family="Helvetica">HTTPS</text></g><!--link fe to be--><g class="link" data-entity-1="ent0003" data-entity-2="ent0004" id="lnk7" data-source-line="18" data-link-type="dependency"><path d="M450.23,301.59 C425.325,301.59 399.925,301.59 379.996,301.59 C370.032,301.59 361.435,301.59 354.952,301.59 C353.332,301.59 351.843,301.59 350.498,301.59 C350.33,301.59 355.164,301.59 355,301.59" style="stroke:#0049B0;stroke-width:1;" fill="none" id="fe-to-be"/><polygon points="350,301.59,359,305.59,355,301.59,359,297.59,350,301.59" fill="#0049B0" style="stroke:#0049B0;stroke-width:1;stroke-linejoin:miter;stroke-miterlimit:10;"/><text x="360.5" y="294.657" fill="#000" font-size="13" textLength="72.719" font-family="Helvetica">HTTP /api/*</text></g><?plantuml-src TL6nJiCm4Dtz5QTq0nKAXG46fAPj10YXqbITiboTIs98pzNPAKY8xsBdot0Yg3A05v_VdTzxVdOlXdSek0LNOMvV3PTGOEr8kKD7RCEvji8aS7RUQ-HKO5FxnB9_n2t1BTLxyaPZRsOYOb-djhO2Wz7euYeUzPfBqXwvh2csafFyDpP3ZnjqVqufr3uSepZ8E988q44J2XWatL9AVaKWMbDbT2YcbWjJDeBXQWI3sImP9tDuLm3QRdUMYJr4YOHt4USPhnk2CNnzmjfuQlTL9KGdpovZBWs_mJ6aYqadNT116A2GDfKeHltIyTpZ7k7yicL8Tz967LlhuIBZvJnTmMHn1wUuCwT77TNcGDKv0yX_Oe0eVNe8JZBM0QbjsHBgmvECPTSYNLYkeyetFLSVwaEfBg9X-70UthIch-5sjLgaAfH3CMNb0xpvXNzSVGC0?></g></svg>