<svg xmlns="http://www.w3.org/2000/svg" xmlns:xlink="http://www.w3.org/1999/xlink" version="1.1" data-diagram-type="DESCRIPTION" style="width:840px;height:288px;background:#FFFFFF;" width="840px" height="288px" viewBox="0 0 840 288" zoomAndPan="magnify" preserveAspectRatio="none" contentStyleType="text/css"><?plantuml 1.2026.7beta8?><defs/><g font-family="sans-serif" lengthAdjust="spacing"><!--cluster Vehicle Configurator--><g class="cluster" data-qualified-name="Vehicle Configurator" id="ent0002" data-source-line="10"><rect x="7" y="144.8" width="819" height="129.89" fill="#DDF3FE" style="stroke:#0049B0;stroke-width:1;" rx="6" ry="6"/><text x="335.067" y="159.795" fill="#000" font-size="14" textLength="162.866" font-weight="700" font-family="Helvetica">Vehicle Configurator</text></g><!--entity fe--><g class="entity" data-qualified-name="Vehicle Configurator.fe" id="ent0003" data-source-line="11"><rect x="22.63" y="179.8" width="190.732" height="78.891" fill="#FFF" style="stroke:#181818;stroke-width:0.5;" rx="6" ry="6"/><rect x="193.362" y="184.8" width="15" height="10" fill="#FFF" style="stroke:#181818;stroke-width:0.5;"/><rect x="191.362" y="186.8" width="4" height="2" fill="#FFF" style="stroke:#181818;stroke-width:0.5;"/><rect x="191.362" y="190.8" width="4" height="2" fill="#FFF" style="stroke:#181818;stroke-width:0.5;"/><text x="37.63" y="212.795" fill="#000" font-size="14" textLength="63.109" font-family="Helvetica">Frontend</text><text x="37.63" y="229.092" fill="#000" font-size="14" textLength="150.732" font-family="Helvetica">Vue 3 · Vite · Three.js</text><text x="37.63" y="245.389" fill="#000" font-size="14" textLength="86.345" font-family="Helvetica">nginx + SPA</text></g><!--entity be--><g class="entity" data-qualified-name="Vehicle Configurator.be" id="ent0004" data-source-line="12"><rect x="321.8" y="179.8" width="200.398" height="78.891" fill="#FFF" style="stroke:#181818;stroke-width:0.5;" rx="6" ry="6"/><rect x="502.198" y="184.8" width="15" height="10" fill="#FFF" style="stroke:#181818;stroke-width:0.5;"/><rect x="500.198" y="186.8" width="4" height="2" fill="#FFF" style="stroke:#181818;stroke-width:0.5;"/><rect x="500.198" y="190.8" width="4" height="2" fill="#FFF" style="stroke:#181818;stroke-width:0.5;"/><text x="336.8" y="212.795" fill="#000" font-size="14" textLength="60.361" font-family="Helvetica">Backend</text><text x="336.8" y="229.092" fill="#000" font-size="14" textLength="160.398" font-family="Helvetica">Java 25 · Spring Boot 4</text><text x="336.8" y="245.389" fill="#000" font-size="14" textLength="104.85" font-family="Helvetica">REST API /api/*</text></g><!--entity db--><g class="entity" data-qualified-name="Vehicle Configurator.db" id="ent0005" data-source-line="13"><path d="M631.81,190.3 C631.81,180.3 721.001,180.3 721.001,180.3 C721.001,180.3 810.192,180.3 810.192,190.3 L810.192,248.191 C810.192,258.191 721.001,258.191 721.001,258.191 C721.001,258.191 631.81,258.191 631.81,248.191 L631.81,190.3" style="stroke:#0049B0;stroke-width:0.5;" fill="#FFF"/><path d="M631.81,190.3 C631.81,200.3 721.001,200.3 721.001,200.3 C721.001,200.3 810.192,200.3 810.192,190.3" style="stroke:#0049B0;stroke-width:0.5;" fill="none"/><text x="641.81" y="217.295" fill="#000" font-size="14" textLength="66.801" font-family="Helvetica">Database</text><text x="641.81" y="233.592" fill="#000" font-size="14" textLength="74.785" font-family="Helvetica">MySQL 8.4</text><text x="641.81" y="249.889" fill="#000" font-size="14" textLength="158.382" font-family="Helvetica">configurations · orders</text></g><!--entity user--><g class="entity" data-qualified-name="user" id="ent0001" data-source-line="8"><ellipse cx="118" cy="14" rx="8" ry="8" fill="#FFF" style="stroke:#181818;stroke-width:0.5;"/><path d="M118,22 L118,49 M105,30 L131,30 M118,49 L105,64 M118,49 L131,64" style="stroke:#181818;stroke-width:0.5;" fill="none"/><text x="89.48" y="78.495" fill="#000" font-size="14" textLength="57.039" font-family="Helvetica">Browser</text></g><!--link user to fe--><g class="link" data-entity-1="ent0001" data-entity-2="ent0003" id="lnk6" data-source-line="16" data-link-type="dependency"><path d="M118,81.89 C118,110.68 118,145.41 118,174.56" style="stroke:#0049B0;stroke-width:1;" fill="none" id="user-to-fe"/><polygon points="118,179.56,122,170.56,118,174.56,114,170.56,118,179.56" fill="#0049B0" style="stroke:#0049B0;stroke-width:1;stroke-linejoin:miter;stroke-miterlimit:10;"/><text x="119" y="124.867" fill="#000" font-size="13" textLength="41.749" font-family="Helvetica">HTTPS</text></g><!--link fe to be--><g class="link" data-entity-1="ent0003" data-entity-2="ent0004" id="lnk7" data-source-line="17" data-link-type="dependency"><path d="M213.77,219.24 C248.06,219.24 281.79,219.24 316.46,219.24" style="stroke:#0049B0;stroke-width:1;" fill="none" id="fe-to-be"/><polygon points="321.46,219.24,312.46,215.24,316.46,219.24,312.46,223.24,321.46,219.24" fill="#0049B0" style="stroke:#0049B0;stroke-width:1;stroke-linejoin:miter;stroke-miterlimit:10;"/><text x="231.58" y="212.307" fill="#000" font-size="13" textLength="72.719" font-family="Helvetica">HTTP /api/*</text></g><!--link be to db--><g class="link" data-entity-1="ent0004" data-entity-2="ent0005" id="lnk8" data-source-line="18" data-link-type="dependency"><path d="M522.39,219.24 C557.68,219.24 592.08,219.24 626.42,219.24" style="stroke:#0049B0;stroke-width:1;" fill="none" id="be-to-db"/><polygon points="631.42,219.24,622.42,215.24,626.42,219.24,622.42,223.24,631.42,219.24" fill="#0049B0" style="stroke:#0049B0;stroke-width:1;stroke-linejoin:miter;stroke-miterlimit:10;"/><text x="540.5" y="212.307" fill="#000" font-size="13" textLength="73.436" font-family="Helvetica">JDBC :3306</text></g><?plantuml-src TL5DJy904BtlhvYKcuOF0OroCA50WqGDKiA9oxGToagP9RjRq1X_btT_cTi6I4rqBpixR-QzcRTc8tc76hTWrfYeW-GKLfWP4kQCQ9Lp4YlDfE6gNG4IMc6UsK2nVSOjmPYoFLaPOwMchxKw35IcDDHQhUwTtwg0CuejSfgHhtH2-h-o8LgCqFnP9J2sxkdvJiQGzW0Dv2w0Mb0U8VH91Bm5hMNiWe7YbKnpZQxLWzfm67I24Nm8W5XjTug9BNY1TdiH9qjUv0GT-Fw2XRHKtFEr9cgycYLpAlaDBY6Szalf5Ps5Vv7v66zAhWdk4ThN1KkuquNTlb8MkakUZS8vzASFqCITR5wKT56LBZdQ0Dx9a2K_lOSlZt3RSFtnUIcfs1G2fLsc94gYCz6d4AL1TVVTNBylHkx1U3wVXiA5TItJjNNfw9G-pYEY2kZeUZ0P-WFeTJgjcny0?></g></svg>